<svg width="24" height="24" viewBox="0 0 24 24" fill="none" xmlns="http://www.w3.org/2000/svg">
<path d="M11.0962 19.0884L4.6404 12.6326C4.54682 12.5391 4.48079 12.4403 4.44233 12.3365C4.40388 12.2327 4.38465 12.1205 4.38465 12C4.38465 11.8795 4.40388 11.7673 4.44233 11.6634C4.48079 11.5596 4.54682 11.4609 4.6404 11.3673L11.1058 4.90192C11.2442 4.76346 11.4141 4.69166 11.6154 4.68652C11.8167 4.68141 11.9949 4.75641 12.15 4.91152C12.3051 5.05639 12.3852 5.22947 12.3904 5.43075C12.3955 5.63202 12.3205 5.81022 12.1654 5.96535L6.88073 11.25H18.4885C18.7013 11.25 18.8795 11.3218 19.0231 11.4654C19.1666 11.609 19.2384 11.7872 19.2384 12C19.2384 12.2128 19.1666 12.391 19.0231 12.5346C18.8795 12.6782 18.7013 12.7499 18.4885 12.7499H6.88073L12.175 18.0442C12.3135 18.1827 12.3852 18.3551 12.3904 18.5615C12.3955 18.7679 12.3205 18.9436 12.1654 19.0884C12.0205 19.2435 11.8449 19.3211 11.6385 19.3211C11.4321 19.3211 11.2513 19.2435 11.0962 19.0884Z" fill="white"/>
</svg>
