<svg width="48" height="48" viewBox="0 0 48 48" fill="none" xmlns="http://www.w3.org/2000/svg">
<rect width="48" height="48" rx="24" fill="white"/>
<path d="M21.55 29.2769C21.4295 29.2769 21.3173 29.2577 21.2135 29.2192C21.1096 29.1808 21.0109 29.1148 20.9173 29.0212L16.7423 24.8462C16.5975 24.7013 16.5276 24.5231 16.5327 24.3116C16.5378 24.1001 16.6128 23.9219 16.7577 23.777C16.9026 23.6321 17.0782 23.5597 17.2846 23.5597C17.491 23.5597 17.6667 23.6321 17.8115 23.777L21.55 27.5154L30.1885 18.877C30.3333 18.7321 30.5115 18.6597 30.7231 18.6597C30.9346 18.6597 31.1128 18.7321 31.2577 18.877C31.4025 19.0219 31.475 19.2001 31.475 19.4116C31.475 19.6231 31.4025 19.8013 31.2577 19.9462L22.1827 29.0212C22.0891 29.1148 21.9904 29.1808 21.8865 29.2192C21.7827 29.2577 21.6705 29.2769 21.55 29.2769Z" fill="#00615F"/>
</svg>
